<svg xmlns="http://www.w3.org/2000/svg" viewBox="0 0 463.1 461.81"><defs><style>.cls-1{fill:#faed89;}.cls-2{fill:#333;}.cls-3{fill:#ffb2d0;}.cls-4{fill:none;stroke:#333;stroke-linecap:round;stroke-linejoin:round;stroke-width:6px;}</style></defs><title>HALogoGrey</title><g id="circle"><ellipse class="cls-1" cx="231.55" cy="230.91" rx="231.55" ry="230.91"/></g><g id="smile"><path class="cls-2" d="M35.73,332.74H448.66A225.87,225.87,0,0,1,357.3,436.05S328,379.17,241.56,377.91s-115.7,60.37-115.7,60.37a208.6,208.6,0,0,1-24.06-16.44A215,215,0,0,1,35.73,332.74Z" transform="translate(-10 -15)"/><path class="cls-3" d="M241.56,377.91c86.4,1.26,115.74,58.14,115.74,58.14a233.76,233.76,0,0,1-115.74,32.23c-15.36.11-65-.28-115.7-30C125.86,438.28,155.16,376.67,241.56,377.91Z" transform="translate(-10 -15)"/><polyline class="cls-4" points="26.36 195.38 185.19 239.29 26.36 263.14"/><polyline class="cls-4" points="438.66 195.38 277.29 239.29 438.66 263.14"/><path class="cls-4" d="M125.86,438.28a208.6,208.6,0,0,1-24.06-16.44,215,215,0,0,1-66.07-89.1H448.66A225.87,225.87,0,0,1,357.3,436.05a233.76,233.76,0,0,1-115.74,32.23C226.2,468.39,176.59,468,125.86,438.28Z" transform="translate(-10 -15)"/><path class="cls-4" d="M125.86,438.28s29.3-61.61,115.7-60.37S357.3,436.05,357.3,436.05" transform="translate(-10 -15)"/></g></svg>