<svg xmlns="http://www.w3.org/2000/svg" viewBox="0 0 336 346.29"><defs><style>.cls-1{fill:#ccc;}.cls-2,.cls-4{fill:#ffeb99;}.cls-3{fill:#ffce51;}.cls-4{stroke:#ffce51;stroke-width:6px;}.cls-10,.cls-4,.cls-5{stroke-miterlimit:10;}.cls-5{fill:#00b2e6;}.cls-10,.cls-5{stroke:#333;stroke-width:0.5px;}.cls-6{fill:#ff7bac;}.cls-7{fill:#333;}.cls-8{fill:#fff;}.cls-9{fill:#f2f2f2;}.cls-10{fill:#ffeada;}</style></defs><title>email</title><g id="Layer_6" data-name="Layer 6"><ellipse class="cls-1" cx="168" cy="163" rx="168" ry="163"/></g><g id="Layer_1" data-name="Layer 1"><rect class="cls-2" x="51" y="63.98" width="234.08" height="138.65"/><path class="cls-3" d="M294.08,81V213.64H66V81H294.08m6-6H60V219.64H300.08V75Z" transform="translate(-12 -14)"/><path class="cls-4" d="M68.13,49" transform="translate(-12 -14)"/></g><g id="Layer_2" data-name="Layer 2"><polyline class="cls-4" points="49.48 64.49 166.19 133.31 282.91 64.49"/></g><g id="Layer_3" data-name="Layer 3"><polygon class="cls-5" points="227.91 163.03 205.41 144.02 279.71 64.56 302.21 83.57 227.91 163.03"/><path class="cls-6" d="M311.68,91,298.6,80.57c-.34-.19-3.89-2.26-3.69-4.89a5.72,5.72,0,0,1,.74-2.1,9.61,9.61,0,0,1,2.21-2.81l2.22-2.11a8.19,8.19,0,0,1,3-1.7,9.54,9.54,0,0,1,7.33,1l3,2.11c3.65,2.58,4.54,3.12,5.91,4.21a36,36,0,0,1,4.43,4.21,7.42,7.42,0,0,1,2.22,4.22,7.16,7.16,0,0,1-.64,4,9.1,9.1,0,0,1-3.06,3.74L320,92.54a5.22,5.22,0,0,1-3,1.4A5.71,5.71,0,0,1,311.68,91Z" transform="translate(-12 -14)"/><polygon class="cls-7" points="302.6 83.9 279.51 64.39 283.49 60.14 306.58 79.64 302.6 83.9"/></g><g id="Layer_5" data-name="Layer 5"><polygon class="cls-8" points="69.67 213.96 190.72 140.45 279.21 272.11 158.17 345.62 69.67 213.96"/><path class="cls-9" d="M202.57,155.13,290.5,286l-120.18,73L82.38,228.12l120.19-73m.29-1.35L81,227.8,170,360.29l121.9-74L202.86,153.78Z" transform="translate(-12 -14)"/><path class="cls-7" d="M202.37,188l-93.79,57a1.16,1.16,0,0,0-.34,1.66h0a1.3,1.3,0,0,0,1.73.41l93.79-57a1.16,1.16,0,0,0,.34-1.66h0A1.31,1.31,0,0,0,202.37,188Z" transform="translate(-12 -14)"/><path class="cls-7" d="M210.17,199.51l-93.8,57a1.16,1.16,0,0,0-.34,1.66h0a1.3,1.3,0,0,0,1.73.4l93.8-56.95a1.18,1.18,0,0,0,.34-1.67h0A1.3,1.3,0,0,0,210.17,199.51Z" transform="translate(-12 -14)"/><path class="cls-7" d="M217.26,210.31l-93.79,57a1.15,1.15,0,0,0-.34,1.66h0a1.31,1.31,0,0,0,1.73.41l93.79-57a1.17,1.17,0,0,0,.34-1.66h0A1.3,1.3,0,0,0,217.26,210.31Z" transform="translate(-12 -14)"/><path class="cls-7" d="M225.77,223.14,132,280.1a1.16,1.16,0,0,0-.34,1.66h0a1.31,1.31,0,0,0,1.73.41l93.79-57a1.17,1.17,0,0,0,.34-1.66h0A1.31,1.31,0,0,0,225.77,223.14Z" transform="translate(-12 -14)"/><path class="cls-7" d="M234.28,236l-93.79,57a1.16,1.16,0,0,0-.34,1.66h0a1.31,1.31,0,0,0,1.73.41l93.79-57a1.16,1.16,0,0,0,.34-1.66h0A1.31,1.31,0,0,0,234.28,236Z" transform="translate(-12 -14)"/><path class="cls-7" d="M242.08,247.46l-93.8,57a1.18,1.18,0,0,0-.34,1.67h0a1.3,1.3,0,0,0,1.73.4l93.8-57a1.17,1.17,0,0,0,.34-1.66h0A1.3,1.3,0,0,0,242.08,247.46Z" transform="translate(-12 -14)"/><path class="cls-7" d="M249.87,258.94l-93.79,57a1.17,1.17,0,0,0-.35,1.66h0a1.32,1.32,0,0,0,1.74.41l93.79-57a1.17,1.17,0,0,0,.34-1.66h0A1.3,1.3,0,0,0,249.87,258.94Z" transform="translate(-12 -14)"/><path class="cls-7" d="M259.07,271.79l-93.8,56.95a1.18,1.18,0,0,0-.34,1.67h0a1.3,1.3,0,0,0,1.73.4l93.8-57a1.16,1.16,0,0,0,.34-1.66h0A1.3,1.3,0,0,0,259.07,271.79Z" transform="translate(-12 -14)"/></g><g id="Layer_4" data-name="Layer 4"><path class="cls-10" d="M240,177l-19,5.24-10.15,2.8q.93-4,1.84-8l4.41-19a17.24,17.24,0,0,0,4.27.12c1-.1,1.5-.24,3.73-.56,3-.44,3.38-.36,3.66-.14.64.51.31,1.37.32,4.12s0,4,.67,4.53,1.27.45,5.27,0c4.41-.52,5-.65,5.55-.19.73.61.57,1.64,0,6.32C240.36,174.36,240.16,176.06,240,177Z" transform="translate(-12 -14)"/><polygon class="cls-7" points="198.83 171.2 201.65 159.72 210.74 167.9 198.83 171.2"/></g></svg>