<svg xmlns="http://www.w3.org/2000/svg" viewBox="0 0 556.34 461.81"><defs><style>.cls-1{fill:#faed89;}.cls-2{fill:#333;}.cls-3{fill:#ffb2d0;}.cls-4{fill:none;stroke:#333;stroke-linecap:round;stroke-linejoin:round;stroke-width:6px;}</style></defs><title>haSmile</title><g id="circle"><ellipse class="cls-1" cx="231.55" cy="230.91" rx="231.55" ry="230.91"/></g><g id="smile"><path class="cls-2" d="M35.73,332.74H448.66A225.87,225.87,0,0,1,357.3,436.05S328,379.17,241.56,377.91s-115.7,60.37-115.7,60.37a208.6,208.6,0,0,1-24.06-16.44A215,215,0,0,1,35.73,332.74Z" transform="translate(-10 -15)"/><path class="cls-3" d="M241.56,377.91c86.4,1.26,115.74,58.14,115.74,58.14a233.76,233.76,0,0,1-115.74,32.23c-15.36.11-65-.28-115.7-30C125.86,438.28,155.16,376.67,241.56,377.91Z" transform="translate(-10 -15)"/><polyline class="cls-4" points="26.36 195.38 185.19 239.29 26.36 263.14"/><polyline class="cls-4" points="438.66 195.38 277.29 239.29 438.66 263.14"/><path class="cls-4" d="M125.86,438.28a208.6,208.6,0,0,1-24.06-16.44,215,215,0,0,1-66.07-89.1H448.66A225.87,225.87,0,0,1,357.3,436.05a233.76,233.76,0,0,1-115.74,32.23C226.2,468.39,176.59,468,125.86,438.28Z" transform="translate(-10 -15)"/><path class="cls-4" d="M125.86,438.28s29.3-61.61,115.7-60.37S357.3,436.05,357.3,436.05" transform="translate(-10 -15)"/></g><g id="ha"><path class="cls-2" d="M479.66,319.83l2,.56-5.06,18.37,21.52,5.93,5.06-18.37,2,.56L494,367.79l-2-.56,6-21.62-21.52-5.93-6,21.62-2-.56Z" transform="translate(-10 -15)"/><path class="cls-2" d="M503.34,352.46l-9.85,15.2-2-.56,24.42-37.29,2.63.72,2.24,44.64-2-.56-.79-18.13Zm14.48,3c-.79-16.28-1-21.5-.9-24.31l-.12,0c-1.46,3-6.51,10.57-12.85,20.52Z" transform="translate(-10 -15)"/><path class="cls-2" d="M504,252.54l2-.47,4.23,18.58,21.77-5-4.23-18.57,2.05-.47L539.26,288l-2,.47-5-21.87-21.77,4.95,5,21.87-2.06.47Z" transform="translate(-10 -15)"/><path class="cls-2" d="M540.26,270.09l-1.49,18.05-2,.47,3.88-44.41,2.66-.6,23.08,38.27-2.05.46L555,266.73Zm14.18-4.2c-8.39-14-11.07-18.46-12.28-21l-.12,0c.11,3.31-.74,12.39-1.63,24.16Z" transform="translate(-10 -15)"/><path class="cls-2" d="M499.62,158l2,.7-6.27,18,21.08,7.34,6.27-18,2,.69-14,40.08-2-.7L516.11,185,495,177.61l-7.38,21.18-2-.69Z" transform="translate(-10 -15)"/><path class="cls-2" d="M521.08,192.15l-10.83,14.51-2-.69,26.84-35.59,2.58.9L537,216l-2-.69.41-18.15Zm14.25,3.95c.29-16.29.41-21.52.72-24.31l-.12,0c-1.65,2.86-7.19,10.11-14.18,19.62Z" transform="translate(-10 -15)"/></g></svg>