<svg xmlns="http://www.w3.org/2000/svg" viewBox="0 0 556.3 461.81"><defs><style>.cls-1{fill:#faed89;}.cls-2{fill:#fff;}.cls-3{fill:#ffb2d0;}.cls-4{fill:none;stroke:#333;stroke-linecap:round;stroke-linejoin:round;stroke-width:6px;}.cls-5{fill:#333;}</style></defs><title>haSmile</title><g id="circle"><ellipse class="cls-1" cx="231.55" cy="230.91" rx="231.55" ry="230.91"/></g><g id="smile"><path class="cls-2" d="M35.73,332.74H448.66A225.87,225.87,0,0,1,357.3,436.05S328,379.17,241.56,377.91s-115.7,60.37-115.7,60.37a208.6,208.6,0,0,1-24.06-16.44A215,215,0,0,1,35.73,332.74Z" transform="translate(-10 -15)"/><path class="cls-3" d="M241.56,377.91c86.4,1.26,115.74,58.14,115.74,58.14a233.76,233.76,0,0,1-115.74,32.23c-15.36.11-65-.28-115.7-30C125.86,438.28,155.16,376.67,241.56,377.91Z" transform="translate(-10 -15)"/><polyline class="cls-4" points="26.36 195.38 185.19 239.29 26.36 263.14"/><polyline class="cls-4" points="438.66 195.38 277.29 239.29 438.66 263.14"/><path class="cls-4" d="M125.86,438.28a208.6,208.6,0,0,1-24.06-16.44,215,215,0,0,1-66.07-89.1H448.66A225.87,225.87,0,0,1,357.3,436.05a233.76,233.76,0,0,1-115.74,32.23C226.2,468.39,176.59,468,125.86,438.28Z" transform="translate(-10 -15)"/><path class="cls-4" d="M125.86,438.28s29.3-61.61,115.7-60.37S357.3,436.05,357.3,436.05" transform="translate(-10 -15)"/></g><g id="ha"><path class="cls-5" d="M479.71,319.82l2,.56-5.06,18.37,21.52,5.93,5.06-18.37,2,.56L494,367.78l-2-.56,6-21.62-21.52-5.93-6,21.62-2-.56Z" transform="translate(-10 -15)"/><path class="cls-5" d="M503.38,352.45l-9.85,15.2-2-.56,24.43-37.29,2.63.72,2.23,44.64-2-.56L518,356.47Zm14.48,3c-.78-16.28-1-21.5-.89-24.31l-.12,0c-1.46,3-6.51,10.57-12.85,20.52Z" transform="translate(-10 -15)"/><path class="cls-5" d="M503.92,252.58l2.06-.47,4.23,18.57L532,265.73l-4.23-18.58,2.06-.46,9.42,41.38-2.06.46-5-21.87-21.76,5,5,21.87-2.06.47Z" transform="translate(-10 -15)"/><path class="cls-5" d="M540.22,270.13l-1.49,18.05-2.06.46,3.89-44.4,2.66-.61L566.3,281.9l-2.06.47L555,266.77Zm14.18-4.21c-8.4-14-11.07-18.46-12.28-21l-.13,0c.12,3.3-.74,12.39-1.62,24.16Z" transform="translate(-10 -15)"/><path class="cls-5" d="M499.67,158l2,.69-6.27,18L516.48,184l6.27-18,2,.69-14,40.08-2-.69,7.38-21.18-21.08-7.34-7.38,21.18-2-.69Z" transform="translate(-10 -15)"/><path class="cls-5" d="M521.14,192.12l-10.83,14.52-2-.7,26.84-35.59,2.57.9L537,215.94l-2-.7.41-18.14Zm14.25,3.95c.29-16.29.4-21.51.72-24.31l-.12,0c-1.65,2.87-7.2,10.11-14.18,19.62Z" transform="translate(-10 -15)"/></g></svg>