<svg xmlns="http://www.w3.org/2000/svg" viewBox="0 0 1366 300"><defs><style>.cls-1{fill:#73fff5;}.cls-2{fill:#f9f98a;}.cls-3{fill:#333;}.cls-4{fill:#ffb2d0;}.cls-5{fill:none;stroke:#333;stroke-linecap:round;stroke-linejoin:round;stroke-width:4px;}</style></defs><title>heatherheader</title><g id="background"><rect class="cls-1" width="1366" height="300"/></g><g id="Layer_1" data-name="Layer 1"><ellipse class="cls-2" cx="676.27" cy="139" rx="97.27" ry="97"/><path class="cls-3" d="M589.81,175.48H763.27a94.78,94.78,0,0,1-38.38,43.4s-12.32-23.9-48.61-24.43-48.61,25.37-48.61,25.37a89.11,89.11,0,0,1-37.86-44.34Z"/><path class="cls-4" d="M676.28,194.45c36.29.53,48.61,24.43,48.61,24.43a98.28,98.28,0,0,1-48.61,13.54c-6.46,0-27.3-.12-48.61-12.6C627.67,219.82,640,193.93,676.28,194.45Z"/><polyline class="cls-5" points="590.07 124.07 656.79 142.52 590.07 152.54"/><polyline class="cls-5" points="763.27 124.07 695.49 142.52 763.27 152.54"/><path class="cls-5" d="M627.67,219.82a89.11,89.11,0,0,1-37.86-44.34H763.27a94.78,94.78,0,0,1-38.38,43.4,98.28,98.28,0,0,1-48.61,13.54C669.82,232.46,649,232.3,627.67,219.82Z"/><path class="cls-5" d="M627.67,219.82s12.31-25.89,48.61-25.37,48.61,24.43,48.61,24.43"/><path class="cls-3" d="M776.31,170.05l.86.24L775,178l9,2.49,2.13-7.71.85.23-4.73,17.19-.86-.24,2.51-9.08-9-2.49-2.51,9.08-.85-.23Z"/><path class="cls-3" d="M786.26,183.76l-4.14,6.38-.85-.23,10.26-15.66,1.11.3.94,18.75-.86-.24-.33-7.61Zm6.08,1.26c-.33-6.84-.42-9-.37-10.21h-.05c-.61,1.24-2.74,4.43-5.4,8.61Z"/><path class="cls-3" d="M786.49,141.8l.86-.19,1.78,7.8,9.14-2.08-1.77-7.8.86-.2,4,17.38-.87.2-2.09-9.19-9.14,2.08,2.09,9.19-.86.2Z"/><path class="cls-3" d="M801.74,149.18l-.63,7.58-.86.2,1.63-18.66,1.12-.25,9.69,16.07-.86.2-3.9-6.55Zm6-1.77c-3.52-5.87-4.65-7.75-5.16-8.82h0c0,1.39-.31,5.21-.68,10.15Z"/><path class="cls-3" d="M784.71,102.07l.83.3-2.63,7.55,8.85,3.09,2.64-7.56.83.29-5.86,16.83-.84-.29,3.1-8.89-8.85-3.09-3.1,8.9-.84-.29Z"/><path class="cls-3" d="M793.72,116.41l-4.55,6.09-.83-.29,11.27-14.95,1.08.38-.3,18.77-.84-.29.17-7.62Zm6,1.66c.12-6.85.17-9,.3-10.21l0,0c-.69,1.2-3,4.25-6,8.24Z"/></g></svg>